<?xml version="1.0" encoding="utf-8"?>
<!-- Generator: Adobe Illustrator 19.0.0, SVG Export Plug-In . SVG Version: 6.00 Build 0)  -->
<svg version="1.1" id="Logo02_xA0_Image_1_" xmlns="http://www.w3.org/2000/svg" xmlns:xlink="http://www.w3.org/1999/xlink"
	 x="0px" y="0px" viewBox="0 0 1920 1080" style="enable-background:new 0 0 1920 1080;" xml:space="preserve">
<style type="text/css">
	.st0{fill:#FDFDFD;}
	.st1{fill:#401E15;}
	.st2{fill:#CA621D;}
	.st3{fill:#422017;}
	.st4{fill:#411E16;}
	.st5{fill:#CF6C29;}
</style>
<g>
	<g>
		
		<path class="st1" d="M668,487c-7.4-13.1-7.3-25.7-0.8-38.5c11.4-22.2,30.6-36.4,51.5-48.1c50.8-28.5,105.6-39.5,163.5-36.4
			c20.7,1.1,40.6,4.5,59.2,14c34.5,17.4,50.9,47.7,42.8,87.8c-6.7,33.4-27.9,55.7-56.1,72.1c-34.5,20-72.2,24.9-111.3,20.6
			c-7.3-0.8-10.7,0.9-13.1,8.3c-8.2,26.3-17.3,52.2-25.9,78.4c-1.8,5.4-4.7,9.1-9.8,11.6c-11.8,5.9-23.9,10.1-36.9,8.1
			c14.1-30.7,23-63.5,34.5-95.4c1.3-3.6,1.9-7.6,3.6-11c3.2-6.2-0.2-7.6-5.2-8.5c-10.2-1.8-20.4-3.4-29.5-9.1
			c9.9-0.4,19.7-3.6,29.3,1.5c5.9,3.2,10,2.4,12.6-5.3c12-34.3,23.6-68.7,34.3-103.4c0.9-2.9,2.8-5.9,2.6-8.6
			c-1.1-12.9,7.5-16.1,17.2-19.4c13.2-4.4,25.6-11.1,40-14.6c-23.3,49.3-39.1,100.5-57.4,150.7c-3.6,9.8-3.5,9.6,6.8,10.2
			c25.5,1.6,50.3-0.4,73.9-11.6c41.7-19.9,66.7-67.9,57.3-110.5c-6.9-31-31.1-52.3-64.9-56.9c-45.7-6.3-89.6,0.8-131.1,20.1
			c-32.8,15.3-59.2,38.5-77.8,70.1C673.2,470.2,670.4,478,668,487z"/>
		<path class="st2" d="M1029.4,713.3c-26-1.5-52-2.9-78-4.3c-18.8-1-37.7-2.1-56.5-2.8c-44.1-1.7-88.2-2.5-132.4-2
			c-37.9,0.4-75.7,2.3-113.5,4.7c-48.6,3.1-97,8.8-145.2,15.7c-36.2,5.2-72.2,11.1-108.1,17.5c-13.6,2.4-27.1,5.2-40.7,7.8
			c0-1,0-2,0-3c26.3-10.5,53.7-17.1,81.3-23.1c80.7-17.7,162.3-28,244.8-32.3c42.2-2.2,84.4-3.2,126.6-2.2
			c63.5,1.4,126.9,6.2,190.2,11.2c11.6,0.9,23.2,2.4,34.7,3.6C1033.6,707.9,1029.4,709.9,1029.4,713.3z"/>
		<path class="st3" d="M501.1,562.2c19.1-15.3,30-35.1,31-59.6c0.6-13.7-2.3-27.1-16.3-33.7c-15.2-7.1-28,0-39.4,9.6
			c-15.3,13-22.7,31-29.7,49.1c-12.1,31-20.3,63.6-39.1,91.9c-8.3,12.5-19,23-28.9,34.9c4.5,1.7,7.8-0.7,11.2-1.9
			c31.6-11.5,63.9-18.1,97.6-13.9c6,0.7,12,2.2,17.9,3.4c4.3,0.8,6.1,2.3,2.6,6.5c-4.2,5.2-7.4,11.2-11.9,16
			c-5.4,5.7-9.1-2.4-13.9-3.2c-40-6.8-78.9-2.3-117.6,7.8c-3.6,0.9-7,1.2-11.6,0.9c9-8.7,17.4-16.9,23.3-27.2
			c12.5-21.7,20-45.3,27.1-69.1c9-29.9,20-58.7,41.8-81.9c18.4-19.5,40.4-32.3,68.2-29.9c18.5,1.6,35.3,12.6,35,36.6
			c-0.3,23.4-24.8,57.7-46.6,64.9C501.7,563,501.4,562.6,501.1,562.2z"/>
		<path class="st4" d="M1346.5,568.6c7.8-2.8,15.8-4.7,24-6c6.6-1,8.7,2.3,7.3,8.1c-1.1,4.7-2.7,9.2-4.4,14.6
			c5.5-1.6,8.4-5.3,11.9-8.2c9.7-8.1,20-14.9,32.6-17c17.3-2.9,24.4,5.1,19.3,21.8c-5.1,16.8-10.8,33.5-16.3,50.2
			c-1.2,3.7-2.5,7.3-3.5,11c-2.6,9.9-0.6,12.1,9.3,10.6c0,1.3-0.1,2.6-0.1,3.9c-4.7,3.3-10.1,4.3-15.5,5.6
			c-13.9,3.6-21-3.6-16.9-17.5c3.5-11.9,7.6-23.5,11.3-35.3c2.7-8.7,6.5-16.9,8.2-26c0.7-3.7,1.7-7.4-1.5-10
			c-3.3-2.7-7.2-1.8-10.9-0.2c-18.8,8.3-30.8,22.9-38.1,41.6c-4.9,12.6-9,25.4-13.4,38.2c-2.3,6.6-18.2,13.1-24.3,10.1
			c-3.6-1.8-0.9-3.6-0.3-5.3c9-26,18.1-51.9,27.1-77.9c1.9-5.4,3.4-10.7-5.7-9.8C1346.5,570.4,1346.5,569.5,1346.5,568.6z"/>
		<path class="st3" d="M1088.6,559.5c-12.7,1-23.1,0.7-33.6,2.9c-24.3,5.1-37,21-44.3,42.9c-2,6.1-3.4,12.3-3.2,18.8
			c0.5,15.2,5.6,27.7,20.2,34.5c15,6.9,28.5,2.6,39.8-7.8c15-13.8,19.9-31.8,16.4-51.6c-2.4-13.6-10.4-19.2-25.3-19.9
			c6.1-12.8,6-12.7,19.4-9.2c34.8,9,38.9,43.1,22.3,66.1c-20.1,27.8-56.4,38.3-88.8,26.8c-37.1-13.2-35.3-51.1-17.8-74.3
			c20.6-27.3,49.4-34.8,82-31.4C1079.2,557.7,1082.7,558.5,1088.6,559.5z"/>
		<path class="st4" d="M1122.9,576.1c14.4-4.3,28.1-8.1,38.3-19.8c9.3,15.9,7.5,32.5,5.8,48.5c-1.7,16.1-5.6,32-12.2,48.6
			c11.5-3,19.5-8.9,27.3-15.1c17.2-13.8,31.4-30.1,41.4-49.9c9-17.8,8.3-30.2-3-42.5c23.8,1.8,33,9.3,27.5,32.4
			c-2.9,12.4-9.3,23.1-17.2,32.7c-21.3,25.8-47.3,44.8-80.4,52.9c-0.3,0.1-0.5,0.3-0.7,0.4c-5.4,1.6-12.2,3-16.2,0.8
			c-5.8-3.3,0.5-9.1,1.4-13.6c4.2-20.3,8.4-40.6,8-61.6c-0.1-6.5,0.3-13.1-9.9-10.1C1129.7,580.7,1126.2,578.8,1122.9,576.1z"/>
		<path class="st4" d="M625.4,656.7c-6.9,5.5-15,7.9-23.6,8.2c-8.7,0.3-14.1-6.6-12.4-15.3c0.7-3.5,2-6.9,2.4-10.5
			c0.4-3.3,2.7-6.2,1.5-10.1c-5.1,3.2-7.6,8.6-11.5,12.6c-8.2,8.3-16.2,16.6-27.2,21.4c-14.2,6.1-27.6-2-27.6-17.6
			c0.1-24.6,10.5-44.6,28.9-60.8c16.6-14.7,35.9-21.2,58-19.6c8,0.6,16,1.2,24.5-1.9c-7.5,22.1-14.7,43.2-21.7,64.4
			c-1.8,5.5-3.5,11-4.6,16.7c-1.6,8.4,0.7,10.7,9.6,10.7C623,655.1,624.5,655.3,625.4,656.7z M549.8,635.9
			c0.7,6.3-1.1,12.9,5.2,15.6c5.8,2.6,10.5-1.3,14.9-4.8c0.2-0.2,0.4-0.3,0.6-0.5c20.5-19.7,32.7-44.2,41.3-70.8
			c1.4-4.4-0.3-6.8-5.3-6.8c-8.6,0-16.4,2.6-23.2,7.6C562.9,591.2,553.8,612.5,549.8,635.9z"/>
		<path class="st5" d="M1029.4,713.3c0.1-3.5,4.2-5.5,3.3-9.3c37.6,2.9,75.3,6,112.9,8.8c42.6,3.2,85.3,5.9,128,8
			c32.1,1.5,64.3,2.2,96.4,1.8c35.2-0.4,70.4-1.9,105.6-4.8c38.2-3.2,76.1-8.2,113.8-15.3c3.9-0.7,7.2,2.2,11-0.2
			c0.1,0.8,0.1,1.5,0.2,2.3c-14.4,3-28.8,6.1-43.2,8.8c-44.5,8.4-89.5,12-134.6,14.6c-19.7,1.1-39.4,1.1-59.1,1.5
			c-44.8,0.9-89.5-0.6-134.2-2.9c-58.5-3-116.9-6.2-175.3-11.1C1045.9,714.8,1037.7,714,1029.4,713.3z"/>
		<path class="st4" d="M872.5,664.7c11.5-28,20-57,29.9-85.5c1.2-3.6,1.1-7.6-5.4-10.8c11-0.8,18.6-5.4,27.6-3.7
			c5.2,1,5.4,2.9,3.8,7.3c-3.7,10.2-7,20.6-10.6,31.3c4.5-0.2,5.5-3.3,7.3-5.5c8.5-10.9,16.3-22.4,27.2-31.3c2.4-2,4.9-3.8,7.9-4.3
			c3.5-0.7,7.6-2,10.4,0.7c3,2.9-0.6,6-1.4,9c-1.1,4.5-2.5,9-3.7,13.5c-2.7,9.8-2.5,19,6.6,26.3c-20.6,1.8-26.3-3.5-28.5-26.3
			c-6.8,5.1-11.6,11.4-15.9,18c-8.6,13.1-17.1,26.5-22.6,41.3C899.3,659.9,897.7,665.7,872.5,664.7z"/>
		<path class="st3" d="M1648.3,641.3c-1,5.2-5.1,7.7-8.7,10.2c-16,11.3-33.2,17.6-52.9,10.5c-18.4-6.6-27.4-22.1-22.8-41.3
			c7.9-32.4,28-53.4,60.7-61.3c7.9-1.9,16.4-2.8,24.5,0.6c10.4,4.4,13.8,12.7,8.6,22.8c-9.1,17.6-25.8,24.3-43.4,29
			c-6.1,1.6-12.6,2.7-18.9,2.4c-6.3-0.3-7.8,3.2-8.4,7.7c-1,6.3-1.5,12.7,0.5,18.9c4.6,14,18.2,20.2,33.7,15.6
			C1631.4,653.3,1640.4,648.4,1648.3,641.3z M1640.6,573.4c0-7.6-4.5-11.1-12-8.8c-21.2,6.6-29.3,24.8-37.5,42.8
			c-1.4,3,0.8,4.1,3.5,3.6c15.9-2.9,30.5-8.3,40.2-22.4C1638,584.1,1640.7,579.3,1640.6,573.4z"/>
		<path class="st3" d="M1546.8,638.8c-8.7,13.7-20.9,20.9-35.6,24.5c-8.8,2.1-17.7,1.8-26.3-0.5c-19.1-5.1-29-23.6-24.3-44.6
			c8.2-37.2,44.8-63.7,82.4-59.6c1.3,0.1,2.7,0.5,3.9,1.1c3.9,1.7,10.8,1.6,11,5.6c0.2,5.6-3.2,11.4-5.1,17.1
			c-0.2,0.5-1.5,1.1-2,0.9c-2-1-3.8-2.9-3.8-5c0-5.4,0.3-10.6-5.8-13.4c-6.6-3-13.1-2.1-19.4,0.4c-13.1,5-21.8,15.2-28.3,26.9
			c-7.8,13.9-13.2,28.5-8.9,45c3.5,13.3,11.7,19.4,25.3,18.6c11.9-0.7,21.6-6,30.5-13.4C1542,641,1542.9,638.5,1546.8,638.8z"/>
		<path class="st5" d="M1334.6,523.5c-11.4-6.5-15.2-17.5-15.9-29.5c-0.8-13.3,5.7-24.5,13.6-34.8c10.8-14.2,25-25.1,36.4-38.8
			c16.6-20,23.2-41.6,15.3-66.9c-0.6-2-0.6-4.3-0.9-6.6c12.3,3.6,22.3,27,17.7,43.8c-3.9,13.9-11.2,25.9-21.3,36
			c-9.8,9.8-20.2,19-30.3,28.6c-13.7,13.1-23.7,27.7-21.4,48.1c0.7,5.7,2.5,8.6,8.6,8.5c9.8-0.1,19.1,3,28.2,6.1
			c3.8,1.3,8.3,2.8,8.3,8.1c0.1,5.4-4.5,7-8.3,8.1c-21.5,6.3-43.1,7-64.5-0.9c-4.1-1.5-8.8-3.1-8.9-8.6c-0.1-6.2,5.1-7.5,9.5-8.8
			c3.8-1.1,7.6-3.6,12.2-1.7c-1.7,3.3-5.3,2.8-7.7,4.3c-5.1,3.2-5.6,7.6-0.3,10.1c17.3,8,35.2,9,53.2,2c2.2-0.9,4.8-2.2,4.7-5.2
			c-0.1-2.9-2.6-4.1-4.7-5.3c-5.4-2.9-11.1-4.9-17.3-5.1c-2.4-0.1-5.7-1.8-7.2,0.1c-2.1,2.6,1.5,4.8,2.2,7.4
			C1335.5,522.8,1335.1,523.2,1334.6,523.5z"/>
		<path class="st4" d="M1296.3,654.4c-7.8,6.3-17,8.9-26.6,10.5c-7.6,1.3-13.5-4.3-13.1-12.1c0.6-11.2,6-21.1,9.2-31.6
			c4.1-13.7,9.3-27.2,13.8-40.8c1.8-5.5,5.2-12.2-7.6-10.3c12.5-5.3,23.6-8.7,36.5-8.1c-7.2,21.3-14.3,41.9-21.2,62.6
			c-2.2,6.5-4.2,13.2-5.9,19.8c-0.7,2.8-2.1,6.4,0.6,8.7c3,2.6,6.3,0.7,9.3-0.6c1.5-0.6,3.1-1.2,4.6-1.9
			C1296.1,651.8,1296.2,653.1,1296.3,654.4z"/>
		<path class="st3" d="M625.4,656.7c-0.9-1.5-2.4-1.6-3.9-1.8c7.4-4.6,15.4-8.2,22.6-13.4C639,648.2,632.8,653.2,625.4,656.7z"/>
		<path class="st3" d="M1426.6,657.8c0-1.3,0.1-2.6,0.1-3.9c5.8-4.1,12.3-7.3,17.8-12.1C1441,649.9,1433.4,653.4,1426.6,657.8z"/>
		<path class="st3" d="M1296.3,654.4c-0.1-1.3-0.2-2.6-0.3-3.9c4.8-3.2,9.5-6.4,14.3-9.6C1307.1,647.4,1302.1,651.3,1296.3,654.4z"
			/>
		<path class="st5" d="M355.1,746.9c0,1,0,2,0,3c-5.4,2.9-11.4,2.8-17.3,3.7C342.9,749.7,349,748.3,355.1,746.9z"/>
		<path class="st3" d="M1346.5,568.6c0,0.9,0,1.7,0,2.6c-2.4,2.1-5,2.9-8.5,1.6C1340.1,569.3,1343.5,569.3,1346.5,568.6z"/>
		<path class="st3" d="M502,563.4c-0.3,1.2-1.6,1.9-2.2,1.3c-1.5-1.6,1-1.5,1.4-2.4C501.4,562.6,501.7,563,502,563.4z"/>
		<path class="st5" d="M1336,522.5c0.1,0.6,0.1,1.3,0.2,1.9c-0.5-0.3-1-0.6-1.5-0.9C1335.1,523.2,1335.5,522.8,1336,522.5z"/>
		
		
	</g>
</g>
</svg>
