<?xml version="1.0" encoding="utf-8"?>
<!-- Generator: Adobe Illustrator 19.0.0, SVG Export Plug-In . SVG Version: 6.00 Build 0)  -->
<svg version="1.1" id="Logo_xA0_Image_1_" xmlns="http://www.w3.org/2000/svg" xmlns:xlink="http://www.w3.org/1999/xlink" x="0px"
	 y="0px" viewBox="468.8 35.4 993.2 993.2" style="enable-background:new 0 0 1920 1080;" xml:space="preserve">
<style type="text/css">
	.st0{fill:#FEFEFE;}
	.st1{fill:#F8F5F1;}
	.st2{fill:#E37628;}
	.st3{fill:#371A17;}
	.st4{fill:#381B18;}
	.st5{fill:#2D0E0B;}
</style>
<g>
	<g>
		
		
		<path class="st1" d="M1450,550l-0.4,0c0,0-0.4,0-0.4,0c0-12.7,0-25.4,0-38c0.2,0,0.5,0,0.7,0C1450,524.7,1450,537.3,1450,550z"/>
		<path class="st1" d="M978,1018.2c0,0.3,0,0.5,0,0.8c-8.3,0-16.7,0-25,0c0-0.3,0-0.5,0-0.8C961.3,1018.2,969.7,1018.2,978,1018.2z"
			/>
		<path class="st2" d="M978,1018.2c-8.3,0-16.7,0-25,0c-46.3-1.9-91.7-9.2-135.7-24c-63.5-21.4-120.2-54.5-170.5-98.7
			c-45-39.6-81.9-85.6-109.7-138.8c-22.6-43.2-38.3-88.9-47.3-136.8c-5.6-29.7-8.9-59.7-8.6-89.8c0.7-65.6,13.5-128.9,39.5-189.3
			c27.9-64.7,67.6-121.1,119.8-168.5c50.6-45.9,108.4-79.8,173.3-101.5c32.5-10.8,65.6-18.7,99.6-22.6c32.9-3.7,65.8-4,98.7-0.5
			c33.2,3.5,65.7,10,97.5,20.2c56.9,18.3,108.8,45.9,155.6,83c64.5,51,112.4,114.6,144.9,189.8c17.7,41,29.2,83.8,35,128.2
			c1.9,14.4,3.1,28.8,4.1,43.2c0,12.7,0,25.4,0,38c-2,46-10.5,90.8-25,134.4c-20.2,60.8-50.8,115.7-92.5,164.3
			c-53.9,62.8-120,108.4-197,138.3c-41.2,16-83.8,25.9-127.9,29.3C997.3,1017,987.6,1017.6,978,1018.2z M1421.3,536.4
			c-0.3-14.5-0.4-25-1.1-35.5c-3.3-49.6-14.4-97.5-33.2-143.4c-30.3-74-76-136.8-139.4-185.8c-98.1-75.8-209.2-107.5-332.6-94.4
			c-47.9,5.1-93.8,18-137.6,38c-95.7,43.7-168.1,112.2-216.8,205.4c-31.7,60.7-48.6,125.6-51.4,194c-1.4,35.6,1.6,70.9,8.4,105.8
			c16.1,82.8,52.7,155.5,109.4,217.8c52.7,57.8,116.1,100.1,189.3,127.5c69.7,26,141.6,34,215.2,23.9c51-7,99.2-22.8,144.6-47.1
			c94.6-50.8,163-125.9,206-224.2C1408.2,659.1,1421.1,597.1,1421.3,536.4z"/>
		<path class="st3" d="M1421.3,536.4c-0.3,60.7-13.2,122.7-39.1,181.9c-43,98.3-111.3,173.4-206,224.2
			c-45.4,24.3-93.6,40.1-144.6,47.1c-73.7,10.1-145.6,2.2-215.2-23.9c-73.2-27.3-136.7-69.6-189.3-127.5
			c-56.7-62.3-93.3-135-109.4-217.8c-6.8-35-9.9-70.3-8.4-105.8c2.8-68.4,19.6-133.2,51.4-194c48.7-93.2,121.1-161.7,216.8-205.4
			c43.8-20,89.8-33,137.6-38c123.4-13,234.5,18.7,332.6,94.4c63.3,49,109.1,111.8,139.4,185.8c18.8,46,29.9,93.8,33.2,143.4
			C1421,511.4,1421.1,521.9,1421.3,536.4z M1275,387c-0.1-2.9-0.3-5.9-0.4-8.8c2.3-4.1,2.1-10.7-0.6-13.2c-0.2-0.9-0.3-1.9-0.5-2.8
			c1.9-2.6,3-5.1-0.6-7.2c-0.1-0.7-0.1-1.3-0.2-2c1.5-1.5,1.9-2.9-0.6-3.9c-4.1-23.5-10.2-46.4-21.3-67.7
			c-16.7-32.2-41.4-55.4-76.3-66.9c-13.2-4.3-26.8-6.3-40.5-7.8c-1.4-2.9-4.1-1.7-6.2-1.7c-64.1-0.1-128.3-0.1-192.4-0.1
			c-41.7,0-83.3,0-125,0.1c-1.9,0-4.5-1.4-5.5,1.7c-1.3,0.2-2.6,0.4-3.9,0.5c-21.3,1.8-41.6,7-60.6,17.2
			c-31.6,16.9-51.8,43.8-63.3,76.8c-20.6,58.9-16.6,117,9.9,173.3c13.6,29.1,34.3,52.1,62.4,68.1c2.2,1.3,6.1,1.8,5.9,4.6
			c-0.2,2.5-3.9,3.2-6.2,4.5c-23.5,13.3-41.9,31.5-53.8,56c-6.3,13-9.5,26.9-11.5,41.2c-3.5,2.8-2.3,5.9-0.6,9.1
			c0.1,42.1,0.1,84.3,0.2,126.4c0,0.5-0.2,1-0.3,1.5c-1.5,2.5-2.7,5,0.7,7.1c2.3,11.4,8.1,20.6,16.9,28.2c3.3,2.8,5.9,6.3,8.1,10.1
			c9,15.5,1.4,30.5-12.6,32.2c-0.3,0-0.7,0.1-1,0.2c-2.2,0.8-3.9,2.2-3.9,4.7c-0.1,2.4,1.3,4,3.6,4.9c3.8,1.5,7.8,1.9,11.7,2.4
			c23.6,2.9,41.7-9.4,47.6-32.3c1.8-6.8,2.6-13.7,2.6-20.8c0-52.8,0-105.6,0.1-158.5c0-16.9,3.2-33.2,11.2-48.2
			c7.9-14.8,18.9-26.5,34.7-33.1c-0.8,1.2-1,2.5-0.6,3.8c1,3.3,3.7,3.4,6.5,3.2c2.9-0.2,2.4-2.2,2.2-4c-0.8-5.6-0.7-5.6,4.8-3.7
			c1.7,0.6,3.4,1.6,4.4-1.1c1.6-4,5.7-4.9,8.8-2c3.1,2.9,4.9,2.6,6.2-1.2c0.6-1.7,1.5-2,3-1.9c1.5,0.1,2,1,2,2.3c0,1.5,0,3,0,4.5
			c0,82.9,0,165.9,0,248.8c0,4.6,0.6,9.3-0.8,13.9c-0.6,1.8-0.1,3.7,2.1,4.5c-1.2,7.9-4.9,14.7-10,20.7
			c-6.3,7.3-13.5,13.6-21.4,19.2c-5.2,3.7-5.1,7.4,0.2,11.3c0.7,2.7,2.9,1.7,4.6,1.7c106.6,0,213.2,0,319.8,0c1.7,0,3.8,0.6,4.8-1.6
			c6.8-3.6,7.2-7.2,1.2-11.7c-8.1-6.1-15.8-12.7-22.7-20.1c-8.6-9.1-12.5-20.1-12.7-32.6c1.8-2.2,2.2-4.8,2-7.5
			c-0.3-5-1.1-9.9-1-14.9c0.2-15.9,0-31.8,0.1-47.7c0.1-19.6-0.1-39.1,0.5-58.7c0.2-8.1,0.8-16.4,0.2-24.5
			c-0.9-11.9-0.6-23.7-0.6-35.6c0-13.6,0.7-27.1,0.9-40.7c0.1-8.7-0.7-17.4-0.1-26.1c0.2-4,1-5.5,5.3-5.4c10.8,0.3,21.7,0.3,32.5,0
			c3.5-0.1,7.6,0.6,10.4-2.7c9.2-2.1,18.5-4.1,27.3-7.8c32-13.7,53.7-37.8,69.2-68.2c10.8-21.3,16.7-44,20.8-67.4
			c2.4-3.8,4.2-7.7,1.3-12c0.2-0.9,0.3-1.9,0.5-2.8c2.6-2.5,2.9-9.1,0.6-13.2c0.1-1.9,0.3-3.9,0.4-5.8
			C1277.9,393.3,1277.9,389.6,1275,387z"/>
		<path class="st1" d="M1272.2,429.8c-4.2,23.3-10,46.1-20.8,67.4c-15.5,30.4-37.2,54.5-69.2,68.2c-8.8,3.8-18,5.7-27.3,7.8
			c-14.9,1.8-29.9,1.1-44.9,1.1c-4.2,0-5.6,0.9-5.6,5.5c0.1,69.1,0,138.2,0.1,207.3c0,16.6-0.6,33.3,0.4,49.9
			c0.2,12.4,4.1,23.4,12.7,32.6c7,7.4,14.7,14,22.7,20.1c5.9,4.5,5.6,8.2-1.2,11.7c-1.7-0.1-3.3-0.1-5-0.1c-108.1,0-216.1,0-324.2,0
			c-5.3-3.9-5.4-7.6-0.2-11.3c7.9-5.6,15.1-11.9,21.4-19.2c5.1-6,8.8-12.8,10-20.7c1.7-5.1,1.8-10.5,1.8-15.8
			c0-84.3,0-168.6,0-252.9c0-1.3-0.1-2.7,0-4c0.1-1.8-0.4-2.8-2.5-2.8c-13.3-0.3-26,1.8-37.7,8.4c-15.8,6.6-26.8,18.3-34.7,33.1
			c-8,15-11.2,31.3-11.2,48.2c-0.1,52.8-0.1,105.6-0.1,158.5c0,7-0.9,13.9-2.6,20.8c-5.9,22.8-24,35.2-47.6,32.3
			c-4-0.5-7.9-0.9-11.7-2.4c-2.3-0.9-3.6-2.5-3.6-4.9c0.1-2.4,1.7-3.9,3.9-4.7c0.3-0.1,0.6-0.2,1-0.2c14-1.8,21.6-16.7,12.6-32.2
			c-2.2-3.8-4.8-7.2-8.1-10.1c-8.8-7.6-14.6-16.8-16.9-28.2c-0.2-2.4-0.4-4.7-0.7-7.1c0.1-0.5,0.3-1,0.3-1.5
			c0-42.1-0.1-84.3-0.2-126.4c0.2-3,0.4-6.1,0.6-9.1c2-14.2,5.2-28.1,11.5-41.2c11.9-24.5,30.3-42.7,53.8-56c2.3-1.3,6-2,6.2-4.5
			c0.2-2.8-3.7-3.3-5.9-4.6c-28.1-16-48.8-39.1-62.4-68.1c-26.4-56.3-30.4-114.4-9.9-173.3c11.5-33,31.7-59.9,63.3-76.8
			c18.9-10.2,39.2-15.4,60.6-17.2c1.3-0.1,2.6-0.4,3.9-0.5c56.1,0,112.2,0,168.3,0c53.6,0,107.2,0,160.8,0
			c13.7,1.6,27.3,3.5,40.5,7.8c35,11.5,59.6,34.7,76.3,66.9c11.1,21.3,17.2,44.2,21.3,67.7c0.2,1.3,0.4,2.6,0.6,3.9
			c0.1,0.7,0.1,1.3,0.2,2c0,2.4-0.5,4.9,0.6,7.2c0.2,0.9,0.3,1.9,0.5,2.8c0.1,4.4-0.7,8.8,0.6,13.2c0.1,2.9,0.3,5.9,0.4,8.8
			c0,3,0,6,0,9c-0.1,1.9-0.3,3.9-0.4,5.8c-1.2,4.4-0.4,8.8-0.6,13.2c-0.2,0.9-0.3,1.9-0.5,2.8
			C1273.1,421.8,1272.7,425.8,1272.2,429.8z M842.2,245c0-0.8-0.4-1.1-1.2-1c-6.3-0.9-12.7-1.2-19.1-0.1c-11.9,0.2-23,3.4-33.2,9.4
			c-20.3,12-30.5,31.1-35.6,53.2c-7.3,32-8.3,64.6-7.5,97.3c0.5,23.7,3.2,47.1,11.3,69.7c11.1,30.8,30.8,51.4,64.9,55
			c6.8,0.7,13.6,1.7,20.4-0.5c0.5-2,0.4-4,0.1-6.1c0.1-10.2,0.3-20.3,0.3-30.5c0-18.5-0.2-37-0.3-55.4c0-2,0-4.1,0-6.1
			c0.4-2,0.4-3.9,0-5.9c0-1.4,0-2.7,0-4.1c0.5-2,0.4-3.9,0-5.9c0-1.7,0-3.4,0-5.1c0.4-1.3,0.4-2.6,0-3.9c0-0.7,0-1.4,0-2.1
			c0.1-1,0.3-2,0.3-3c0-45,0-90,0-135c0-1-0.2-2-0.3-3c0-1.7,0-3.4,0-5.1c0-1,0-1.9,0-2.9C842.6,251,842.7,248,842.2,245z
			 M943.3,238.1c0.6-6.8,0.2-10.8-1.7-15.2c-1.4,10.3-3.4,19.6-3.5,29.1c-0.1,0.6-0.3,1.2-0.4,1.8c-1,1.3-0.5,2.8-0.5,4.2
			c-0.1,1-0.1,2-0.2,3c-0.2,1.7-0.5,3.3-0.7,5c-4.2,31.9-7.2,63.9-9.4,95.9c-1.9,27.4,2.2,53.7,12.2,79.3
			c19.3,49.4,22.7,100.7,17.3,152.9c-3.6,35.3-11,70.1-15.8,105.2c-5.4,39.7-9.3,79.4-8.6,119.5c0.3,16.9,1.6,33.7,9.9,49
			c12.8,23.6,44.3,24.3,58.4,1.3c5.3-7.2,8.2-15.6,9.8-24.2c6-31.2,3.4-62.5,0.1-93.8c0-1.7,0-3.3-0.2-5
			c-2.6-28.2-6.8-56.2-11.5-84.1C992.1,624.1,985,586.4,984,548c-0.7-27.9,0.2-55.7,8.1-82.7c2.8-9.6,6.1-19,9.3-28.5
			c7.8-22.4,11.6-45.4,9.8-69.2c-2-26.9-4.3-53.8-8.4-80.5c0.4-4.2-1-8.1-2-12.1c0.1-0.7,0.2-1.3,0.3-2c0.3-1.1,0.1-1.9-1.1-2.3
			c-0.8-15.8-2.9-31.4-5.2-47c-0.5,0-1.1,0.1-1.6,0.1c0,9,0,18.1,0,27.1c0,6.7,0,13.3,0,20c0,2,0,4,0,6c-0.3,14.3-0.4,28.6,0.1,43
			c0,3.7,0,7.4,0,11c0,7.3-0.1,14.6-0.1,22c-1.4,2.4-3,4.7-6.3,3.6c-2.9-1-3.1-3.5-3.3-6.1c-0.6-14.6-1.2-29.3-1.9-43.9
			c-1.2-25.5-2.4-50.9-3.7-76.4c-0.1-2,0.6-4.5-1.9-6.4c-0.1,1.9-0.3,3.4-0.4,4.9c-0.9,40.5-1.8,80.9-2.7,121.4
			c-0.1,3.5-0.6,6.8-4.7,6.8c-4.3,0.1-4.6-3.3-4.7-6.8c-0.9-36-1.9-71.9-2.9-107.9c-0.2-6.1-0.6-12.1-0.9-18.6
			c-2.6,1.8-1.9,4.1-2,5.9c-1.7,40.3-3.4,80.5-4.9,120.8c-0.1,2.9-0.4,5.5-3.5,6.4c-3.1,0.9-4.5-1.4-5.7-3.6
			c0.2-28.3,0.4-56.6-0.4-85c0.4-2.7,0.4-5.4,0-8c0.4-3.4,0.4-6.8,0-10.1C943.7,245.9,943.9,242,943.3,238.1z M1034,244
			c-1.8-0.2-1.7,1.1-1.7,2.3c0,3.2-0.1,6.3-0.1,9.5c-0.1,197.6-0.3,395.2-0.4,592.7c0,3.8,0.2,7.6,0.2,11.5c-0.5,2.4-0.5,4.4,3,3.5
			c0.7,0,1.3,0,2,0c3,0,6,0,9,0c1.7,0,3.3,0,5,0c2.3,0,4.7,0,7,0c5,0.5,2.7-3.4,2.7-5.1c0.1-174.8,0.1-349.5,0.1-524.3
			c0-28.7,0-57.3-0.1-86c0-1.4,1.5-3.9-1.7-4.1c-7.7-0.3-15.3-0.4-23,0C1035.3,244.1,1034.7,244,1034,244z M915.2,376.1
			c0.1-0.5,0.3-1,0.3-1.5c0.1-42.4,0-84.8,0.2-127.2c0-4-1.9-3.9-4.7-3.3c-3.7,0-7.3,0-11,0c-1.2-0.1-2.3-0.2-3.5-0.2
			c-9.1-0.1-9.1-0.1-9.1,9.2c0,152.5,0,304.9,0,457.4c0,49.7,0.1,99.3-0.1,149c0,3.9,1.2,4.8,4.8,4.6c5.6-0.3,11.4-0.5,17,0
			c4.9,0.4,5.9-1.2,5.9-6c-0.1-90,0-179.9,0.1-269.9c0-19.7-0.1-39.3-0.1-59c0.1-1.7,0.3-3.3,0.3-5c0-30.1,0.1-60.1,0.1-90.2
			C915.5,414.6,915.3,395.3,915.2,376.1z M1107,244c-4.4-0.1-2.9,3.3-2.9,5.4c-0.1,73.5-0.1,147-0.1,220.5c0,19,0.1,38-0.1,57
			c0,3.8,1,5.6,5.1,5.2c4.3-0.3,8.7-0.2,13-0.1c8.5,0,17-0.5,24.9-3.9c16.5-5.2,27.6-16.6,35.2-31.7c10.3-20.6,12.4-42.8,12.8-65.3
			c2-32,0.8-63.9-2.6-95.8c-1.2-11.6-2.4-23.2-6.3-34.3c-5-19.4-14.3-36.1-31.6-47.3C1140,244.2,1123.7,243,1107,244z"/>
		<path class="st4" d="M802.8,582.9c11.7-6.6,24.5-8.7,37.7-8.4c2,0,2.6,1,2.5,2.8c-0.1,1.3,0,2.7,0,4c0,84.3,0,168.6,0,252.9
			c0,5.3-0.2,10.6-1.8,15.8c-2.1-0.9-2.6-2.7-2.1-4.5c1.5-4.6,0.8-9.3,0.8-13.9c0-82.9,0-165.9,0-248.8c0-1.5,0-3,0-4.5
			c0-1.3-0.5-2.2-2-2.3c-1.4-0.1-2.4,0.2-3,1.9c-1.4,3.8-3.2,4.1-6.2,1.2c-3.1-2.9-7.2-2.1-8.8,2c-1,2.7-2.7,1.7-4.4,1.1
			c-5.5-2-5.6-1.9-4.8,3.7c0.3,1.8,0.7,3.8-2.2,4c-2.8,0.2-5.5,0.1-6.5-3.2C801.8,585.5,802,584.1,802.8,582.9z"/>
		<path class="st5" d="M1105,837c-0.9-16.6-0.3-33.3-0.4-49.9c-0.1-69.1,0.1-138.2-0.1-207.3c0-4.6,1.4-5.5,5.6-5.5
			c15,0,30,0.7,44.9-1.1c-2.8,3.4-6.9,2.6-10.4,2.7c-10.8,0.3-21.7,0.3-32.5,0c-4.3-0.1-5.1,1.4-5.3,5.4c-0.5,8.7,0.2,17.4,0.1,26.1
			c-0.2,13.6-0.9,27.1-0.9,40.7c0,11.9-0.3,23.7,0.6,35.6c0.6,8.2,0.1,16.4-0.2,24.5c-0.6,19.6-0.4,39.1-0.5,58.7
			c-0.1,15.9,0.1,31.8-0.1,47.7c-0.1,5,0.7,9.9,1,14.9C1107.1,832.2,1106.8,834.8,1105,837z"/>
		<path class="st5" d="M810,901.2c108.1,0,216.1,0,324.2,0c1.7,0,3.3,0.1,5,0.1c-1.1,2.2-3.1,1.6-4.8,1.6c-106.6,0-213.2,0-319.8,0
			C812.9,903,810.7,903.9,810,901.2z"/>
		<path class="st5" d="M1134.2,206.8c-53.6,0-107.2,0-160.8,0c-56.1,0-112.2,0-168.3,0c1-3.1,3.7-1.7,5.5-1.7
			c41.7-0.1,83.3-0.1,125-0.1c64.1,0,128.3,0,192.4,0.1C1130.1,205.1,1132.7,203.9,1134.2,206.8z"/>
		<path class="st5" d="M1274,415c0.1-4.4-0.6-8.8,0.6-13.2C1276.9,405.9,1276.6,412.5,1274,415z"/>
		<path class="st5" d="M1274.6,378.2c-1.2-4.4-0.4-8.8-0.6-13.2C1276.6,367.5,1276.9,374.1,1274.6,378.2z"/>
		<path class="st5" d="M1272.2,429.8c0.4-4,0.9-8,1.3-12C1276.4,422.2,1274.6,426,1272.2,429.8z"/>
		<path class="st5" d="M1275,396c0-3,0-6,0-9C1277.9,389.6,1277.9,393.3,1275,396z"/>
		<path class="st5" d="M683.9,649c-0.2,3-0.4,6.1-0.6,9.1C681.6,654.9,680.4,651.8,683.9,649z"/>
		<path class="st5" d="M1273.5,362.2c-1.1-2.3-0.5-4.8-0.6-7.2C1276.6,357.1,1275.4,359.6,1273.5,362.2z"/>
		<path class="st5" d="M683.2,785.9c0.2,2.4,0.4,4.7,0.7,7.1C680.5,790.9,681.7,788.5,683.2,785.9z"/>
		<path class="st5" d="M1272.8,353c-0.2-1.3-0.4-2.6-0.6-3.9C1274.7,350.1,1274.4,351.5,1272.8,353z"/>
		<path class="st4" d="M1000.1,869.1c-14.1,23-45.6,22.3-58.4-1.3c-8.3-15.3-9.6-32.1-9.9-49c-0.7-40.1,3.2-79.8,8.6-119.5
			c4.8-35.1,12.2-69.9,15.8-105.2c5.4-52.2,2-103.5-17.3-152.9c-10-25.6-14-51.9-12.2-79.3c2.2-32.1,5.2-64.1,9.4-95.9
			c2.8-1.3,2.2-3.1,0.7-5c0.1-1,0.1-2,0.2-3c3-1.1,2.3-2.6,0.5-4.2c0.1-0.6,0.3-1.2,0.4-1.8c1.1,0.2,2.6-0.5,2.6,1.8
			c0,2.3,1,4.5,2.8,6.1c0.5,2.7,0.5,5.4,0,8c-2,0.7-1.4,2.4-1.4,3.8c0,25.7,0,51.4,0,77.2c0,1.5-0.6,3.5,1.8,4
			c1.3,2.2,2.7,4.6,5.7,3.6c3.1-0.9,3.4-3.6,3.5-6.4c1.6-40.3,3.2-80.5,4.9-120.8c0.1-1.8-0.6-4,2-5.9c0.3,6.5,0.8,12.6,0.9,18.6
			c1,36,2,71.9,2.9,107.9c0.1,3.4,0.4,6.8,4.7,6.8c4.1-0.1,4.6-3.3,4.7-6.8c0.8-40.5,1.8-80.9,2.7-121.4c0-1.5,0.2-3,0.4-4.9
			c2.5,1.9,1.8,4.4,1.9,6.4c1.3,25.4,2.5,50.9,3.7,76.4c0.7,14.6,1.3,29.3,1.9,43.9c0.1,2.6,0.3,5.2,3.3,6.1
			c3.3,1.1,4.9-1.2,6.3-3.6c0.8-0.2,1.6-0.6,1.6-1.6c0-6.3,0-12.5,0-18.8c0-1-0.7-1.4-1.6-1.6c0-3.7,0-7.4,0-11
			c1.8-0.4,1.7-1.8,1.7-3.1c0-12.3,0-24.5,0-36.8c0-1.4,0-2.7-1.7-3.1c0-2,0-4,0-6c0.9-0.2,1.7-0.6,1.7-1.6c0-5.6,0-11.2,0-16.9
			c0-0.9-0.8-1.3-1.7-1.5c0-9,0-18.1,0-27.1c0.5,0,1.1-0.1,1.6-0.1c2.4,15.6,4.4,31.2,5.2,47c0,0.9,0.1,1.8,1.1,2.3
			c-0.1,0.7-0.2,1.3-0.3,2c-1.4,4.4-0.6,8.4,2,12.1c4.1,26.7,6.4,53.5,8.4,80.5c1.8,23.8-2,46.8-9.8,69.2
			c-3.3,9.4-6.6,18.9-9.3,28.5c-7.9,27-8.8,54.8-8.1,82.7c1,38.4,8,76.1,14.4,113.9c4.7,27.9,8.8,55.9,11.5,84.1
			c0.2,1.6,0.1,3.3,0.2,5c-0.6,0.3-1.6,0.7-1.6,0.9c0.8,3.7-3,7.8,1.2,11.2c0.7,0.6,0.9,2.5-0.6,3.4c-1.5-0.1-2.1-3.2-3.6-1.6
			c-1.3,1.4-0.8,3.9-0.3,5.8c0.6,2,1.8,0.7,3.1,0.2c1.9-0.8,2,1.3,1.4,1.8c-2.7,2.2-3.1,5.7-5,8.3c-0.9,1.2-2.6,2.3-0.9,3.6
			c1.1,0.8,2.9,2,4.5,0.4c0.6-0.6,0.9-2,2.6-0.8c0,1.2,0.1,2.7,0,4.2c-0.3,3.4,1.9,8-4.8,8c-1.9,0-1.1,2.8,0.4,3.1
			c4.6,1,4.5,4.4,4.3,7.7c-0.4,7.8,1.3,15.6-2.7,23.2c-2.1,3.9-1,9-0.6,13.8c0.4,5.3-1.6,11.9-5.3,17
			C1000.7,863.5,998.4,865.8,1000.1,869.1z M1004,775.8c-0.3-0.5-0.4-1.2-0.7-1.3c-0.7-0.2-1.2,0.3-1.1,1c0,0.3,0.4,0.9,0.7,0.9
			C1003.2,776.5,1003.6,776,1004,775.8z"/>
		<path class="st3" d="M842.2,405c0.4,1.3,0.4,2.6,0,3.9c-1.7,1.7-1.7,3.4,0,5.1c0.4,2,0.5,3.9,0,5.9c-1.6,1.4-1.6,2.7,0,4.1
			c0.5,2,0.4,3.9,0,5.9c-1.8,2-1.8,4.1,0,6.1c0.1,18.5,0.2,37,0.3,55.4c0,10.2-0.2,20.3-0.3,30.5c-1.8,2-1.7,4-0.1,6.1
			c-6.7,2.3-13.6,1.2-20.4,0.5c-34.1-3.6-53.7-24.2-64.9-55c-8.1-22.5-10.8-45.9-11.3-69.7c-0.7-32.7,0.2-65.3,7.5-97.3
			c5.1-22.1,15.3-41.2,35.6-53.2c10.2-6,21.3-9.2,33.2-9.4c1.4,1.7,3.3,1.1,5,1.1c4.7,0,9.4-0.2,14,1c0.6,2.7-1.1,5.7,1.2,8
			c0,1,0,1.9,0,2.9c-1.7,1.7-1.7,3.4,0,5.1c0.1,1,0.3,2,0.3,3c0,45,0,90,0,135c0,1-0.2,2-0.3,3C841,403.6,841,404.3,842.2,405z"/>
		<path class="st3" d="M1195,431c-0.4,22.5-2.5,44.8-12.8,65.3c-7.6,15.1-18.6,26.5-35.2,31.7c-2.8-1.9-5.3,0.3-8,0.5
			c-5,0.3-10.1,3.1-15.1,0.7c-3.3-1.6-5.7-2-9.1,0c-5.2,3.1-9.2,0.5-8.8-5.4c0.3-4.4-0.1-9,0.4-13.2c0.9-8.1,0.4-16.1,0.4-24.1
			c0.3-80.8,0.2-161.6,0.2-242.5c16.7-1,33,0.2,47.5,9.7c17.3,11.3,26.5,27.9,31.6,47.3c-1.8,7.9,1.7,15.2,2.8,22.8
			c0.7,4.8,1.8,9.7,2,14.5c0.5,10.6,2.3,21.1,1.2,31.7c-0.4,3.4,2.5,6.3,1.9,9.7c-2,11.2-1,22.6-0.7,33.8
			C1193.3,419.3,1193.1,425.3,1195,431z"/>
		<path class="st3" d="M900,244c3.7,0,7.3,0,11,0c3,2.6,3,6,3,9.6c-0.1,38.9-0.1,77.9,0,116.8c0,1.9-0.8,4.1,1.2,5.5
			c0.1,19.3,0.2,38.5,0.3,57.8c0,30.1,0,60.1-0.1,90.2c0,1.7-0.2,3.3-0.3,5c-3.6,0.9-2,3.8-2,5.8C913,639.4,913,744,913,848.6
			c0,3-0.2,6,0.1,9c0.3,3.6-1.3,4.6-4.6,4.4c-4.3-0.2-8.7-0.1-13-0.1c-6.4,0-6.4,0-6.4-6.5c0-102.3,0-204.6,0-306.9
			c0-98.6,0-197.2-0.1-295.9c0-4.6,0.6-7.5,6.2-6.8C896.8,246.1,899.3,247.1,900,244z M904.3,246.2c2,1.1,3.4,1,4.9,0.4
			C907.9,245.6,906.6,246.1,904.3,246.2z"/>
		<path class="st3" d="M1058,863.6c-2.3,0-4.7,0-7,0c-1.7-2.3-3.3-2.3-5,0c-3,0-6,0-9,0c-0.3-0.4-0.7-0.8-1-1.2
			c-0.3,0.4-0.7,0.8-1,1.2c-3.4,0.9-3.4-1.1-3-3.5c3.6-1.2,1.9-4.3,1.9-6.4c0.1-202.9,0.1-405.7,0.1-608.6c0.8,0,1.5-0.2,2-0.9
			c7.7-0.5,15.3-0.4,23,0c-2.1,10-0.9,20.2-0.5,30.1c0.5,10.2-0.2,20.4-0.3,30.4c-0.1,9.5,0.9,19,0.3,28.6
			c-0.6,9.6-0.1,19.5,0.3,29.3c0.8,19.2-0.8,38.4-0.6,57.6c0.1,10.5-0.1,21.1,0.5,31.7c0.6,10.4-1.5,21,0.2,31.5
			c1,6-1.1,11.9-0.9,17.9c0.5,18.3-0.4,36.5,0.8,54.8c0.9,14,0.1,28.2-0.6,42.4c-0.6,12.5,0.2,25.1-0.2,37.7
			c-0.2,7.4,0.6,14.8,0.4,22.2c-0.8,28-0.9,56.1,0,84.2c0.3,10.5,0,21.1,0.5,31.6c0.3,5.7-1.3,11.5-0.8,17.3c1,12.2,0,24.3,0,36.5
			C1058,839.7,1058,851.6,1058,863.6z"/>
		<path class="st5" d="M900,244c-0.7,3-3.2,2.1-4.9,1.9c-5.5-0.7-6.2,2.2-6.2,6.8C889,351.4,889,450,889,548.6
			c0,102.3,0,204.6,0,306.9c0,6.5,0,6.5,6.4,6.5c4.3,0,8.7-0.2,13,0.1c3.4,0.2,5-0.8,4.6-4.4c-0.3-3-0.1-6-0.1-9
			c0-104.6,0-209.2,0.1-313.9c0-2-1.6-4.9,2-5.8c0,19.7,0.1,39.3,0.1,59c-0.1,90-0.2,180-0.1,269.9c0,4.8-1,6.4-5.9,6
			c-5.6-0.5-11.3-0.3-17,0c-3.6,0.2-4.8-0.6-4.8-4.6c0.1-49.7,0.1-99.3,0.1-149c0-152.5,0-304.9,0-457.4c0-9.3,0-9.3,9.1-9.2
			C897.7,243.8,898.8,244,900,244z"/>
		<path class="st4" d="M1058,863.6c0-11.9,0-23.9,0-35.8c0-12.2,1-24.3,0-36.5c-0.5-5.8,1.1-11.6,0.8-17.3
			c-0.6-10.5-0.2-21.1-0.5-31.6c-0.9-28-0.8-56.1,0-84.2c0.2-7.5-0.7-14.8-0.4-22.2c0.4-12.6-0.4-25.2,0.2-37.7
			c0.7-14.1,1.6-28.3,0.6-42.4c-1.2-18.3-0.3-36.6-0.8-54.8c-0.2-6,1.9-11.9,0.9-17.9c-1.7-10.5,0.4-21-0.2-31.5
			c-0.6-10.6-0.5-21.1-0.5-31.7c-0.1-19.2,1.4-38.4,0.6-57.6c-0.4-9.8-0.8-19.7-0.3-29.3c0.6-9.6-0.4-19.2-0.3-28.6
			c0.1-10,0.7-20.3,0.3-30.4c-0.5-9.9-1.6-20.1,0.5-30.1c3.2,0.2,1.7,2.7,1.7,4.1c0.1,28.7,0.1,57.3,0.1,86
			c0,174.8,0,349.5-0.1,524.3C1060.7,860.2,1063,864.1,1058,863.6z"/>
		<path class="st5" d="M1034,245c0,202.9,0,405.7-0.1,608.6c0,2.1,1.8,5.2-1.9,6.4c-0.1-3.8-0.2-7.6-0.2-11.5
			c0.1-197.6,0.3-395.2,0.4-592.7c0-3.2,0.1-6.3,0.1-9.5c0-1.2-0.1-2.5,1.7-2.3C1034,244.4,1034,244.7,1034,245z"/>
		<path class="st4" d="M1107,244c0,80.8,0.1,161.6-0.2,242.5c0,8,0.5,16-0.4,24.1c-0.5,4.2-0.1,8.8-0.4,13.2
			c-0.4,5.9,3.6,8.6,8.8,5.4c3.4-2.1,5.8-1.6,9.1,0c5,2.4,10-0.3,15.1-0.7c2.6-0.2,5.2-2.3,8-0.5c-8,3.4-16.4,3.9-24.9,3.9
			c-4.3,0-8.7-0.2-13,0.1c-4.1,0.3-5.1-1.5-5.1-5.2c0.1-19,0.1-38,0.1-57c0-73.5,0-147,0.1-220.5
			C1104.1,247.3,1102.6,243.9,1107,244z"/>
		<path class="st3" d="M1000.1,869.1c-1.7-3.3,0.6-5.5,2.2-7.8c3.6-5.1,5.6-11.7,5.3-17c-0.4-4.8-1.5-9.9,0.6-13.8
			c4.1-7.6,2.4-15.5,2.7-23.2c0.2-3.2,0.2-6.7-4.3-7.7c-1.5-0.3-2.3-3.1-0.4-3.1c6.7,0,4.5-4.6,4.8-8c0.1-1.5,0-3,0-4.2
			c-1.7-1.2-2,0.2-2.6,0.8c-1.6,1.6-3.4,0.5-4.5-0.4c-1.7-1.3,0-2.4,0.9-3.6c1.9-2.6,2.2-6.1,5-8.3c0.6-0.5,0.5-2.6-1.4-1.8
			c-1.3,0.5-2.5,1.8-3.1-0.2c-0.5-1.9-1-4.3,0.3-5.8c1.5-1.6,2.1,1.5,3.6,1.6c1.4-1,1.3-2.9,0.6-3.4c-4.2-3.4-0.4-7.5-1.2-11.2
			c0-0.2,1.1-0.6,1.6-0.9c3.4,31.3,5.9,62.6-0.1,93.8C1008.3,853.5,1005.5,861.8,1000.1,869.1z"/>
		<path class="st4" d="M1195,431c-1.9-5.7-1.7-11.7-1.8-17.5c-0.2-11.3-1.3-22.6,0.7-33.8c0.6-3.4-2.3-6.3-1.9-9.7
			c1.1-10.6-0.7-21.2-1.2-31.7c-0.2-4.8-1.3-9.7-2-14.5c-1.1-7.5-4.6-14.9-2.8-22.8c3.9,11.1,5.1,22.7,6.3,34.3
			C1195.8,367.1,1197,399,1195,431z"/>
		<path class="st5" d="M915.2,376.1c-2-1.5-1.2-3.7-1.2-5.5c-0.1-38.9-0.1-77.9,0-116.8c0-3.7,0-7-3-9.6c2.7-0.6,4.7-0.6,4.7,3.3
			c-0.2,42.4-0.1,84.8-0.2,127.2C915.5,375.1,915.3,375.6,915.2,376.1z"/>
		<path class="st5" d="M943.8,353c-2.4-0.5-1.8-2.5-1.8-4c0-25.7,0-51.4,0-77.2c0-1.4-0.6-3.1,1.4-3.8
			C944.2,296.3,944.1,324.7,943.8,353z"/>
		<path class="st5" d="M943.4,260c-1.8-1.7-2.8-3.8-2.8-6.1c0-2.3-1.5-1.6-2.6-1.8c0.2-9.5,2.1-18.8,3.5-29.1
			c2,4.4,2.3,8.4,1.7,15.2c-1.9,1.4-3.9,9.6-2.7,11.2c0.7,0.9,1.8,0.5,2.8,0.5C943.9,253.2,943.9,256.6,943.4,260z"/>
		<path class="st5" d="M993.3,277c1.8,0.3,1.7,1.7,1.7,3.1c0,12.3,0,24.5,0,36.8c0,1.3,0.1,2.7-1.7,3.1
			C992.9,305.7,992.9,291.3,993.3,277z"/>
		<path class="st5" d="M993.4,331c0.8,0.2,1.6,0.7,1.6,1.6c0,6.3,0,12.5,0,18.8c0,1-0.8,1.3-1.6,1.6
			C993.3,345.7,993.3,338.3,993.4,331z"/>
		<path class="st4" d="M840.9,246c-4.6-1.2-9.3-1-14-1c-1.7,0-3.6,0.6-5-1.1c6.4-1,12.7-0.8,19.1,0.1c0,0.3,0,0.6,0,1
			C841,245.3,841,245.7,840.9,246z"/>
		<path class="st5" d="M993.2,251c0.9,0.2,1.7,0.6,1.7,1.5c0,5.6,0,11.2,0,16.9c0,1-0.8,1.3-1.7,1.6
			C993.2,264.3,993.2,257.7,993.2,251z"/>
		<path class="st4" d="M943.4,249.8c-1,0-2.1,0.4-2.8-0.5c-1.2-1.6,0.8-9.9,2.7-11.2C943.9,242,943.7,245.9,943.4,249.8z"/>
		<path class="st5" d="M1002.9,287.1c-2.6-3.7-3.3-7.7-2-12.1C1001.8,279,1003.3,282.9,1002.9,287.1z"/>
		<path class="st4" d="M1046,863.6c1.7-2.3,3.3-2.3,5,0C1049.3,863.5,1047.7,863.6,1046,863.6z"/>
		<path class="st5" d="M840.9,246c0-0.3,0-0.7,0.1-1c0.4,0,0.8,0,1.2,0c0.5,3,0.4,6,0,9.1C839.8,251.7,841.5,248.6,840.9,246z"/>
		<path class="st5" d="M936.9,261c1.5,1.9,2.1,3.7-0.7,5C936.5,264.3,936.7,262.7,936.9,261z"/>
		<path class="st5" d="M937.6,253.8c1.9,1.6,2.5,3.1-0.5,4.2C937,256.6,936.5,255.1,937.6,253.8z"/>
		<path class="st5" d="M842.1,528c-1.6-2.1-1.7-4.1,0.1-6.1C842.5,524,842.6,526,842.1,528z"/>
		<path class="st5" d="M842.2,436c-1.8-2-1.8-4.1,0-6.1C842.2,432,842.2,434,842.2,436z"/>
		<path class="st5" d="M842.2,414c-1.7-1.7-1.7-3.4,0-5.1C842.2,410.6,842.2,412.3,842.2,414z"/>
		<path class="st5" d="M842.2,262c-1.7-1.7-1.7-3.4,0-5.1C842.2,258.6,842.2,260.3,842.2,262z"/>
		<path class="st4" d="M1034,245c0-0.3,0-0.6,0-1c0.7,0,1.3,0,2,0C1035.6,244.8,1034.8,245,1034,245z"/>
		<path class="st5" d="M842.2,424c-1.6-1.4-1.6-2.7,0-4.1C842.2,421.3,842.2,422.7,842.2,424z"/>
		<path class="st4" d="M1035,863.5c0.3-0.4,0.7-0.8,1-1.2c0.3,0.4,0.7,0.8,1,1.2C1036.3,863.5,1035.7,863.5,1035,863.5z"/>
		<path class="st5" d="M1001.1,273c-1-0.5-1.1-1.3-1.1-2.3C1001.2,271.1,1001.4,272,1001.1,273z"/>
		<path class="st5" d="M842.2,405c-1.2-0.7-1.2-1.4,0-2.1C842.2,403.6,842.2,404.3,842.2,405z"/>
		<path class="st3" d="M842.2,245c-0.4,0-0.8,0-1.2,0c0-0.3,0-0.7,0-1C841.8,243.9,842.2,244.2,842.2,245z"/>
		<path class="st3" d="M1004,775.8c-0.4,0.3-0.8,0.7-1.1,0.7c-0.3-0.1-0.7-0.6-0.7-0.9c-0.1-0.7,0.4-1.2,1.1-1
			C1003.6,774.6,1003.7,775.2,1004,775.8z"/>
		<path class="st5" d="M904.3,246.2c2.3-0.1,3.6-0.5,4.9,0.4C907.7,247.1,906.3,247.3,904.3,246.2z"/>
	</g>
</g>
</svg>
